<svg xmlns="http://www.w3.org/2000/svg" width="220" height="27.5" viewBox="0 0 6232.3 780.2" role="img"><title>MeasuredPlan</title><desc>MeasuredPlan lockup</desc><g id="lockup" transform="translate(-62.6 760.2) scale(1 -1)"><clipPath id="cp-header"><rect x="-17" y="-300" width="6392" height="1040"/></clipPath><g fill="#0B1726"><path d="M192.720703125 0.0H82.58990478515625V727.1002197265625H192.720703125L435.080322265625 132.1009521484375L677.5799560546875 727.1002197265625H789.28076171875V0.0H679.1499633789062V255.6182861328125Q679.1499633789062 308.7384033203125 679.3649597167969 345.3734436035156Q679.5799560546875 382.00848388671875 680.3649597167969 408.2234802246094Q681.1499633789062 434.4384765625 682.4349670410156 454.36846923828125Q683.719970703125 474.2984619140625 685.8599853515625 494.00848388671875L487.5806884765625 0.0H382.5799560546875L184.87066650390625 492.718505859375Q189.720703125 462.8983154296875 191.220703125 410.3833923339844Q192.720703125 357.86846923828125 192.720703125 285.2586669921875Z"/><path d="M1138.8301391601562 -12.57000732421875Q1066.4100952148438 -12.57000732421875 1010.7050476074219 20.355010986328125Q955.0 53.280029296875 923.4349670410156 111.49005126953125Q891.8699340820312 169.7000732421875 891.8699340820312 245.840087890625Q891.8699340820312 322.55010986328125 922.6499633789062 380.9751281738281Q953.4299926757812 439.400146484375 1008.2050476074219 472.5401611328125Q1062.9801025390625 505.68017578125 1134.5401611328125 505.68017578125Q1206.6602783203125 505.68017578125 1259.5753479003906 475.1151428222656Q1312.4904174804688 444.55010986328125 1341.5554504394531 389.35003662109375Q1370.6204833984375 334.14996337890625 1370.6204833984375 259.02984619140625V223.039794921875L949.2203369140625 221.8997802734375L951.2203369140625 292.39019775390625H1263.19970703125Q1263.19970703125 348.72991943359375 1228.4598388671875 382.54974365234375Q1193.719970703125 416.36956787109375 1135.1101684570312 416.36956787109375Q1090.0902709960938 416.36956787109375 1058.7103881835938 397.06964111328125Q1027.3305053710938 377.76971435546875 1010.8155822753906 340.24981689453125Q994.3006591796875 302.72991943359375 994.3006591796875 249.0Q994.3006591796875 164.81024169921875 1031.6155090332031 120.77542114257812Q1068.9303588867188 76.7406005859375 1140.5401611328125 76.7406005859375Q1193.1400146484375 76.7406005859375 1226.8699340820312 97.11550903320312Q1260.599853515625 117.49041748046875 1271.1798095703125 155.67022705078125H1371.760498046875Q1355.320556640625 76.5401611328125 1293.8454284667969 31.985076904296875Q1232.3703002929688 -12.57000732421875 1138.8301391601562 -12.57000732421875Z"/><path d="M1597.2899780273438 -12.57000732421875Q1519.1499633789062 -12.57000732421875 1474.3699340820312 28.995025634765625Q1429.5899047851562 70.56005859375 1429.5899047851562 138.400146484375Q1429.5899047851562 206.11016845703125 1477.3049011230469 246.68017578125Q1525.0198974609375 287.25018310546875 1612.43994140625 294.25018310546875L1763.1897583007812 306.11016845703125V318.41009521484375Q1763.1897583007812 355.8798828125 1749.31982421875 378.3997802734375Q1735.4498901367188 400.919677734375 1711.1449890136719 410.9246520996094Q1686.840087890625 420.92962646484375 1654.5401611328125 420.92962646484375Q1597.80029296875 420.92962646484375 1567.140380859375 397.9847106933594Q1536.48046875 375.039794921875 1536.48046875 332.86993408203125H1443.7398681640625Q1443.7398681640625 385.57000732421875 1470.3749084472656 424.3450622558594Q1497.0099487304688 463.1201171875 1545.9950256347656 484.400146484375Q1594.9801025390625 505.68017578125 1659.5302124023438 505.68017578125Q1723.5003662109375 505.68017578125 1770.1304321289062 483.3351135253906Q1816.760498046875 460.99005126953125 1842.6155090332031 415.9349670410156Q1868.4705200195312 370.8798828125 1868.4705200195312 303.1798095703125V0.0H1775.039794921875L1765.4697875976562 76.31982421875Q1747.8798828125 35.86993408203125 1701.8749084472656 11.64996337890625Q1655.8699340820312 -12.57000732421875 1597.2899780273438 -12.57000732421875ZM1630.6503295898438 70.04052734375Q1692.280029296875 70.04052734375 1728.0198974609375 106.37527465820312Q1763.759765625 142.71002197265625 1763.759765625 205.0596923828125V231.62969970703125L1650.0703735351562 222.04974365234375Q1590.1805419921875 217.18975830078125 1564.5206298828125 196.30490112304688Q1538.8607177734375 175.4200439453125 1538.8607177734375 142.8201904296875Q1538.8607177734375 106.3603515625 1563.1705932617188 88.200439453125Q1587.48046875 70.04052734375 1630.6503295898438 70.04052734375Z"/><path d="M1939.7299194335938 145.960205078125H2042.3006591796875Q2043.440673828125 111.3603515625 2068.245574951172 91.200439453125Q2093.0504760742188 71.04052734375 2136.6503295898438 71.04052734375Q2183.400146484375 71.04052734375 2208.1400146484375 88.84542846679688Q2232.8798828125 106.65032958984375 2232.8798828125 136.400146484375Q2232.8798828125 157.719970703125 2219.864959716797 172.58990478515625Q2206.8500366210938 187.4598388671875 2170.68017578125 196.039794921875L2083.4100952148438 216.46978759765625Q2017.8500366210938 231.8997802734375 1985.5700073242188 265.1847839355469Q1953.2899780273438 298.46978759765625 1953.2899780273438 355.00994873046875Q1953.2899780273438 401.85003662109375 1977.780029296875 435.5550842285156Q2002.2700805664062 469.2601318359375 2045.1851501464844 487.47015380859375Q2088.1002197265625 505.68017578125 2143.3703002929688 505.68017578125Q2197.9303588867188 505.68017578125 2238.775421142578 486.400146484375Q2279.6204833984375 467.1201171875 2302.685516357422 432.13006591796875Q2325.7505493164062 397.1400146484375 2326.1805419921875 349.14996337890625H2223.6098022460938Q2222.7498168945312 384.1798095703125 2200.6549377441406 403.979736328125Q2178.56005859375 423.7796630859375 2139.3802490234375 423.7796630859375Q2099.6204833984375 423.7796630859375 2077.6705932617188 406.54974365234375Q2055.720703125 389.31982421875 2055.720703125 359.0Q2055.720703125 313.67022705078125 2123.48046875 297.37030029296875L2210.8905639648438 276.9403076171875Q2273.320556640625 262.65032958984375 2304.3155822753906 231.36532592773438Q2335.3106079101562 200.080322265625 2335.3106079101562 144.3802490234375Q2335.3106079101562 96.5401611328125 2309.8905639648438 60.9801025390625Q2284.4705200195312 25.4200439453125 2239.200439453125 6.425018310546875Q2193.9303588867188 -12.57000732421875 2134.0902709960938 -12.57000732421875Q2044.9801025390625 -12.57000732421875 1992.3550109863281 31.06005859375Q1939.7299194335938 74.69012451171875 1939.7299194335938 145.960205078125Z"/><path d="M2755.039794921875 491.400146484375H2862.6005859375V0.0H2764.039794921875L2754.4697875976562 70.18975830078125Q2733.1897583007812 33.16986083984375 2688.539794921875 10.2999267578125Q2643.8898315429688 -12.57000732421875 2592.43994140625 -12.57000732421875Q2507.0099487304688 -12.57000732421875 2459.8749084472656 41.144989013671875Q2412.7398681640625 94.8599853515625 2412.7398681640625 185.1400146484375V491.83013916015625H2520.7306518554688V222.2203369140625Q2520.7306518554688 147.89056396484375 2550.04052734375 115.73562622070312Q2579.3504028320312 83.5806884765625 2631.9403076171875 83.5806884765625Q2693.1201171875 83.5806884765625 2724.0799560546875 120.97052001953125Q2755.039794921875 158.3603515625 2755.039794921875 233.1201171875Z"/><path d="M3273.2907104492188 494.41009521484375V394.559326171875H3229.880615234375Q3163.4506225585938 394.559326171875 3124.8756408691406 357.6144104003906Q3086.3006591796875 320.66949462890625 3086.3006591796875 249.24945068359375V0.0H2978.7398681640625V490.83013916015625H3079.880615234375L3088.8706665039062 390.280029296875H3078.7406005859375Q3088.7406005859375 438.99005126953125 3125.9605712890625 469.77008056640625Q3163.1805419921875 500.55010986328125 3221.6005859375 500.55010986328125Q3234.3106079101562 500.55010986328125 3246.66064453125 499.2651062011719Q3259.0106811523438 497.9801025390625 3273.2907104492188 494.41009521484375Z"/><path d="M3542.8301391601562 -12.57000732421875Q3470.4100952148438 -12.57000732421875 3414.705047607422 20.355010986328125Q3359.0 53.280029296875 3327.4349670410156 111.49005126953125Q3295.8699340820312 169.7000732421875 3295.8699340820312 245.840087890625Q3295.8699340820312 322.55010986328125 3326.6499633789062 380.9751281738281Q3357.4299926757812 439.400146484375 3412.205047607422 472.5401611328125Q3466.9801025390625 505.68017578125 3538.5401611328125 505.68017578125Q3610.6602783203125 505.68017578125 3663.5753479003906 475.1151428222656Q3716.4904174804688 444.55010986328125 3745.555450439453 389.35003662109375Q3774.6204833984375 334.14996337890625 3774.6204833984375 259.02984619140625V223.039794921875L3353.2203369140625 221.8997802734375L3355.2203369140625 292.39019775390625H3667.19970703125Q3667.19970703125 348.72991943359375 3632.4598388671875 382.54974365234375Q3597.719970703125 416.36956787109375 3539.1101684570312 416.36956787109375Q3494.0902709960938 416.36956787109375 3462.7103881835938 397.06964111328125Q3431.3305053710938 377.76971435546875 3414.8155822753906 340.24981689453125Q3398.3006591796875 302.72991943359375 3398.3006591796875 249.0Q3398.3006591796875 164.81024169921875 3435.615509033203 120.77542114257812Q3472.9303588867188 76.7406005859375 3544.5401611328125 76.7406005859375Q3597.1400146484375 76.7406005859375 3630.8699340820312 97.11550903320312Q3664.599853515625 117.49041748046875 3675.1798095703125 155.67022705078125H3775.760498046875Q3759.320556640625 76.5401611328125 3697.845428466797 31.985076904296875Q3636.3703002929688 -12.57000732421875 3542.8301391601562 -12.57000732421875Z"/><path d="M4578.247831438861 727.1002197265625V0.0H4465.266996477923V727.1002197265625ZM4750.21725282558 255.02984619140625H4551.57760438808V356.03057861328125H4726.257047747455Q4795.576871966205 356.03057861328125 4832.316740130267 392.4953918457031Q4869.05660829433 428.960205078125 4869.05660829433 492.57000732421875Q4869.05660829433 556.6098022460938 4832.531736468158 591.3546447753906Q4796.006864641986 626.0994873046875 4728.837003802142 626.0994873046875H4534.807890032611V727.1002197265625H4750.21725282558Q4822.77731141933 727.1002197265625 4875.83737001308 697.6051940917969Q4928.89742860683 668.1101684570312 4958.247465227923 615.1901245117188Q4987.597501849017 562.2700805664062 4987.597501849017 491.71002197265625Q4987.597501849017 422.86993408203125 4958.247465227923 369.3049011230469Q4928.89742860683 315.7398681640625 4875.622373675189 285.3848571777344Q4822.347318743548 255.02984619140625 4750.21725282558 255.02984619140625Z"/><path d="M5174.69772157558 0.0H5067.136930559955V740.240234375H5174.69772157558Z"/><path d="M5436.967069720111 -12.57000732421875Q5358.827055071673 -12.57000732421875 5314.047025774798 28.995025634765625Q5269.266996477923 70.56005859375 5269.266996477923 138.400146484375Q5269.266996477923 206.11016845703125 5316.981992815814 246.68017578125Q5364.696989153705 287.25018310546875 5452.117033099017 294.25018310546875L5602.866849993548 306.11016845703125V318.41009521484375Q5602.866849993548 355.8798828125 5588.996915911517 378.3997802734375Q5575.126981829486 400.919677734375 5550.822080706439 410.9246520996094Q5526.517179583392 420.92962646484375 5494.21725282558 420.92962646484375Q5437.477384661517 420.92962646484375 5406.817472552142 397.9847106933594Q5376.157560442767 375.039794921875 5376.157560442767 332.86993408203125H5283.41695985683Q5283.41695985683 385.57000732421875 5310.052000140033 424.3450622558594Q5336.687040423236 463.1201171875 5385.672117327533 484.400146484375Q5434.65719423183 505.68017578125 5499.207304095111 505.68017578125Q5563.177457903705 505.68017578125 5609.807523821673 483.3351135253906Q5656.437589739642 460.99005126953125 5682.29260072597 415.9349670410156Q5708.147611712298 370.8798828125 5708.147611712298 303.1798095703125V0.0H5614.716886614642L5605.146879290423 76.31982421875Q5587.556974505267 35.86993408203125 5541.552000140033 11.64996337890625Q5495.547025774798 -12.57000732421875 5436.967069720111 -12.57000732421875ZM5470.327421282611 70.04052734375Q5531.957120989642 70.04052734375 5567.696989153705 106.37527465820312Q5603.436857317767 142.71002197265625 5603.436857317767 205.0596923828125V231.62969970703125L5489.747465227923 222.04974365234375Q5429.857633684955 217.18975830078125 5404.19772157558 196.30490112304688Q5378.537809466205 175.4200439453125 5378.537809466205 142.8201904296875Q5378.537809466205 106.3603515625 5402.847684954486 88.200439453125Q5427.157560442767 70.04052734375 5470.327421282611 70.04052734375Z"/><path d="M5925.977750872455 0.0H5818.41695985683V491.400146484375H5916.977750872455L5926.977750872455 421.77044677734375Q5950.407743548236 461.51031494140625 5993.272703265033 483.5952453613281Q6036.13766298183 505.68017578125 6087.287626360736 505.68017578125Q6181.877531145892 505.68017578125 6228.367582415423 450.9651794433594Q6274.857633684955 396.25018310546875 6274.857633684955 301.69012451171875V0.0H6167.29684266933V276.72991943359375Q6167.29684266933 344.36956787109375 6137.0619488705015 376.0945129394531Q6106.827055071673 407.8194580078125 6056.077238177142 407.8194580078125Q5994.597501849017 407.8194580078125 5960.287626360736 368.2796630859375Q5925.977750872455 328.7398681640625 5925.977750872455 262.8201904296875Z"/><g clip-path="url(#cp-header)"><path d="M4276.43789710228 3.3573823382133696V782.487093101764H4385.266996477923V3.3573823382133696ZM4082.5275948737412 505.68017578125006H4301.670434134402V408.17698506402H4105.179412190569Q4027.89324314355 408.17698506402 3986.3402854048027 366.08068898712565Q3944.787327666055 323.9843929102313 3944.787327666055 252.50746863683844Q3944.787327666055 180.45588424261894 3986.0529553443894 140.65822864903112Q4027.3185830227235 100.8605730554433 4101.731451465609 100.8605730554433H4324.082178846642V3.3573823382133696H4082.5275948737412Q4005.335574362632 3.3573823382133696 3949.1289667306755 34.707497518075286Q3892.9223590987185 66.0576126979372 3861.896146590375 122.33736555210356Q3830.869934082031 178.61711840626992 3830.869934082031 253.65678887849174Q3830.869934082031 326.3978188674069 3861.896146590375 383.53956190281326Q3892.9223590987185 440.68130493821957 3949.416296791089 473.18074035973484Q4005.9102344834587 505.68017578125006 4082.5275948737412 505.68017578125006Z"/></g></g><g fill="#C21F3A"></g></g></svg>